<svg width="43" height="43" viewBox="0 0 43 43" fill="none" xmlns="http://www.w3.org/2000/svg">
<rect width="43" height="43" rx="21.5" fill="#56565D"/>
<path d="M21.5 32.1486C22.7015 32.1486 23.6844 31.1656 23.6844 29.9642H19.3156C19.3156 31.1656 20.2877 32.1486 21.5 32.1486ZM28.0532 25.5954V20.1344C28.0532 16.7813 26.262 13.9744 23.1383 13.2317V12.489C23.1383 11.5825 22.4066 10.8507 21.5 10.8507C20.5935 10.8507 19.8617 11.5825 19.8617 12.489V13.2317C16.7271 13.9744 14.9468 16.7704 14.9468 20.1344V25.5954L12.7625 27.7798V28.872H30.2376V27.7798L28.0532 25.5954Z" fill="white"/>
<path d="M19.1833 29.8314C19.1833 30.1356 19.2433 30.4369 19.3597 30.7179C19.4761 30.999 19.6468 31.2544 19.8619 31.4695C20.077 31.6846 20.3324 31.8553 20.6134 31.9717C20.8945 32.0881 21.1958 32.148 21.5 32.148C21.8042 32.148 22.1055 32.0881 22.3865 31.9717C22.6676 31.8553 22.923 31.6846 23.1381 31.4695C23.3532 31.2544 23.5239 30.999 23.6403 30.7179C23.7567 30.4369 23.8166 30.1356 23.8166 29.8314H21.5L19.1833 29.8314Z" fill="#AAAAAA"/>
</svg>
