<svg width="43" height="43" viewBox="0 0 43 43" fill="none" xmlns="http://www.w3.org/2000/svg">
<g clip-path="url(#clip0_1_881)">
<circle cx="21.5" cy="21.5" r="21.0278" fill="#56565D"/>
<path d="M30.6639 27.6091V28.6273C30.6639 29.7473 29.7475 30.6637 28.6275 30.6637H14.3727C13.2425 30.6637 12.3363 29.7473 12.3363 28.6273V14.3725C12.3363 13.2525 13.2425 12.3361 14.3727 12.3361H28.6275C29.7475 12.3361 30.6639 13.2525 30.6639 14.3725V15.3907H21.5001C20.3699 15.3907 19.4637 16.3071 19.4637 17.4271V25.5727C19.4637 26.6927 20.3699 27.6091 21.5001 27.6091H30.6639ZM21.5001 25.5727H31.6821V17.4271H21.5001V25.5727ZM25.5729 23.0272C24.7278 23.0272 24.0456 22.345 24.0456 21.4999C24.0456 20.6548 24.7278 19.9726 25.5729 19.9726C26.418 19.9726 27.1002 20.6548 27.1002 21.4999C27.1002 22.345 26.418 23.0272 25.5729 23.0272Z" fill="white"/>
<rect x="21.5001" y="17.3389" width="10.1821" height="8.32129" fill="#AAAAAA"/>
<circle cx="25.5754" cy="21.5005" r="1.52185" fill="#56565D"/>
</g>
<defs>
<clipPath id="clip0_1_881">
<rect width="43" height="43" fill="white"/>
</clipPath>
</defs>
</svg>
